<?xml version="1.0" standalone="no"?>
<!DOCTYPE svg PUBLIC "-//W3C//DTD SVG 20010904//EN"
 "http://www.w3.org/TR/2001/REC-SVG-20010904/DTD/svg10.dtd">
<svg version="1.0" xmlns="http://www.w3.org/2000/svg"
 width="2400.000000pt" height="2400.000000pt" viewBox="0 0 2400.000000 2400.000000"
 preserveAspectRatio="xMidYMid meet">
<metadata>
Created by potrace 1.14, written by Peter Selinger 2001-2017
</metadata>
<g transform="translate(0.000000,2400.000000) scale(0.100000,-0.100000)"
fill="#000000" stroke="none">
<path d="M22595 19619 c-16 -5 -45 -11 -63 -14 -19 -3 -37 -7 -41 -10 -4 -2
-18 -6 -32 -9 -40 -8 -58 -13 -209 -51 -80 -20 -152 -38 -160 -40 -211 -50
-474 -138 -659 -222 -111 -50 -344 -118 -486 -142 -193 -32 -435 -58 -900 -96
-78 -6 -153 -15 -185 -20 -14 -3 -41 -7 -60 -10 -349 -57 -589 -209 -899 -570
-106 -123 -136 -154 -191 -194 -54 -39 -89 -48 -219 -55 -57 -4 -107 -8 -110
-10 -4 -3 -27 -7 -51 -11 -74 -11 -167 -45 -195 -71 l-27 -25 24 -32 c36 -48
119 -84 208 -91 99 -8 116 -12 153 -34 67 -38 39 -122 -61 -190 -44 -29 -126
-16 -417 62 -181 49 -323 64 -399 41 -65 -20 -110 -52 -220 -157 l-99 -95
-166 82 c-91 45 -193 92 -226 103 -234 79 -377 35 -589 -181 -59 -61 -151
-138 -221 -185 -67 -44 -215 -124 -215 -115 0 3 -6 1 -12 -4 -19 -15 -114 -49
-215 -77 -187 -52 -379 -85 -713 -121 -30 -3 -73 -8 -95 -11 -82 -9 -402 -11
-465 -3 -36 5 -81 11 -100 13 -84 11 -253 39 -345 57 -55 11 -113 22 -130 24
-31 5 -77 15 -271 59 -61 14 -126 28 -144 31 -18 3 -37 8 -42 11 -5 3 -20 7
-34 10 -14 3 -50 11 -80 19 -30 8 -80 22 -111 30 -32 9 -112 33 -178 54 -113
36 -228 63 -320 76 -146 19 -212 23 -490 30 -265 7 -362 13 -403 24 -17 5 -32
8 -32 5 0 -7 -111 37 -149 59 -20 12 -76 49 -126 82 -191 130 -230 146 -353
140 -291 -15 -295 -15 -352 5 -66 22 -124 81 -142 144 -6 22 -12 78 -12 122
-1 98 -12 113 -95 145 -49 18 -187 54 -246 65 -140 24 -215 35 -295 45 -106
13 -109 13 -235 24 -49 4 -106 9 -125 10 -235 22 -846 22 -956 1 -115 -23
-367 -23 -469 -1 -11 3 -31 7 -45 9 -45 9 -72 15 -104 25 -45 15 -122 24 -191
23 -77 0 -155 -30 -248 -92 -88 -60 -100 -71 -342 -296 -166 -155 -188 -174
-210 -174 -11 0 -48 -9 -82 -19 -35 -11 -63 -18 -63 -16 0 2 -21 -3 -47 -11
-53 -16 -123 -19 -123 -4 0 28 97 86 255 150 110 46 180 92 199 132 15 31 58
75 220 226 49 46 66 69 64 85 -4 30 -58 63 -126 79 -74 16 -374 16 -467 -1
-38 -6 -83 -14 -100 -17 -70 -12 -158 -39 -275 -84 -194 -76 -461 -153 -610
-175 -25 -4 -56 -8 -70 -10 -124 -19 -163 -22 -330 -29 -224 -10 -344 -16
-370 -20 -14 -2 -50 -7 -80 -11 -30 -3 -73 -9 -95 -12 -61 -8 -234 -47 -390
-87 -184 -48 -269 -55 -324 -27 -66 34 -173 29 -315 -16 -82 -26 -213 -85
-281 -127 -157 -98 -235 -131 -380 -159 -76 -15 -108 -20 -220 -32 -27 -3 -66
-7 -85 -10 -19 -2 -60 -7 -90 -10 -30 -4 -68 -9 -85 -11 -16 -3 -43 -7 -60
-10 -109 -14 -348 -65 -465 -100 -205 -62 -320 -92 -385 -103 -60 -10 -73 -16
-86 -39 -19 -34 -90 -69 -249 -122 -141 -48 -335 -125 -520 -207 -146 -64
-265 -112 -299 -118 -32 -6 -76 -36 -191 -130 -52 -43 -115 -87 -140 -97 -111
-49 -139 -68 -217 -144 -114 -112 -124 -136 -118 -289 3 -66 7 -130 9 -142 3
-12 7 -48 11 -80 3 -32 8 -69 10 -83 2 -14 6 -45 9 -70 22 -174 54 -345 72
-388 12 -30 34 -124 48 -209 13 -73 16 -90 26 -138 6 -27 13 -63 16 -80 13
-66 116 -417 155 -530 70 -203 152 -402 247 -595 128 -260 139 -310 147 -705
9 -435 27 -497 280 -956 25 -46 50 -91 55 -99 75 -125 228 -428 290 -575 23
-55 53 -124 66 -153 13 -29 24 -55 24 -58 0 -3 -35 -58 -77 -122 -98 -150
-138 -228 -143 -283 -9 -100 0 -458 15 -579 2 -19 7 -82 10 -140 4 -58 9 -132
11 -165 2 -33 6 -91 8 -130 3 -38 7 -104 10 -145 11 -143 24 -378 31 -540 5
-113 12 -200 20 -250 3 -14 7 -38 9 -55 7 -41 35 -205 41 -234 2 -13 7 -49 10
-80 4 -31 8 -67 10 -81 3 -14 7 -66 10 -115 3 -50 8 -106 10 -125 23 -220 23
-1275 0 -1720 -2 -36 -6 -121 -9 -190 -8 -156 -15 -290 -21 -355 -2 -27 -6
-90 -10 -140 -3 -49 -8 -108 -10 -130 -3 -22 -7 -69 -10 -105 -6 -71 -14 -163
-21 -225 -12 -115 -16 -149 -30 -255 -13 -100 -43 -283 -59 -360 -28 -137 -35
-224 -21 -270 12 -38 132 -166 182 -193 112 -62 197 -70 321 -32 43 14 132 36
198 50 123 27 152 35 265 78 84 31 138 56 283 128 448 222 882 518 1014 692
26 34 99 115 163 181 63 65 120 124 125 130 39 41 162 198 280 356 190 255
277 342 308 311 7 -7 0 -31 -20 -73 -34 -69 -41 -101 -29 -135 19 -59 164 -50
386 24 25 8 52 16 60 19 8 2 92 26 185 54 94 28 193 57 220 66 73 21 478 136
490 138 6 1 37 10 70 20 70 21 61 19 190 50 82 20 230 46 472 81 91 14 113 18
167 31 33 9 76 24 95 34 37 18 98 36 231 66 85 19 181 57 225 89 55 39 187 97
400 175 241 89 500 209 682 317 201 118 267 131 417 82 147 -48 191 -43 411
51 88 38 214 82 270 95 235 55 441 79 484 55 21 -11 22 -13 6 -30 -22 -24
-128 -80 -153 -80 -91 0 -7 -169 112 -225 84 -39 168 -49 365 -40 294 12 463
13 536 4 138 -19 505 -129 790 -237 659 -250 1350 -504 1485 -545 210 -64 217
-65 565 -58 82 1 170 -6 240 -19 28 -5 64 -12 81 -15 48 -7 201 -53 279 -82
79 -30 135 -59 215 -113 150 -101 315 -151 505 -152 45 0 94 2 110 6 17 3 41
8 55 11 61 11 147 52 213 101 122 91 336 167 561 200 129 19 158 31 179 76 38
80 26 175 -25 207 -79 49 -212 100 -383 146 -55 15 -140 38 -190 51 -98 27
-138 50 -143 81 -2 16 6 23 42 33 93 26 229 14 501 -41 55 -12 108 -23 118
-25 263 -50 834 -222 1051 -315 165 -71 209 -72 501 -9 139 31 170 37 225 46
19 3 55 10 80 15 66 15 287 8 430 -12 69 -10 144 -21 168 -24 24 -2 47 -7 50
-9 4 -2 32 -7 62 -11 30 -4 66 -9 80 -12 14 -3 84 -6 155 -8 104 -3 147 0 213
15 211 50 393 162 686 423 90 80 288 218 431 300 147 84 227 126 615 320 212
106 422 217 468 245 46 29 88 52 93 52 5 0 9 4 9 9 0 5 8 12 18 15 9 3 34 22
55 42 28 27 37 43 37 68 0 89 -157 207 -321 242 -32 6 -126 7 -137 0 -5 -3
-29 -8 -55 -11 -63 -9 -63 13 1 53 46 29 63 37 165 81 54 23 267 77 337 86 25
3 56 7 69 10 38 7 143 18 281 30 41 3 100 8 130 10 106 9 349 20 675 30 607
19 887 33 980 51 65 12 85 17 130 31 28 8 97 38 155 66 159 77 278 204 296
313 8 48 -12 93 -44 101 -38 9 -266 8 -492 -2 -239 -12 -1067 -13 -1285 -2
-233 11 -350 20 -465 33 -47 6 -191 35 -238 48 -9 2 -48 8 -87 11 -38 4 -83 8
-100 10 -16 2 -64 7 -105 10 -41 3 -95 8 -120 10 -25 2 -88 6 -140 10 -52 3
-129 8 -170 10 -208 14 -312 17 -500 19 -163 1 -220 -3 -277 -16 -95 -23 -200
-33 -353 -33 -116 0 -129 2 -180 27 -51 25 -249 175 -250 189 0 4 28 19 63 34
34 15 100 46 147 67 150 70 184 85 260 119 138 60 263 102 340 116 54 9 180
10 230 1 25 -5 59 -11 76 -14 28 -4 168 -41 359 -95 63 -18 118 -30 198 -44
60 -11 175 -13 227 -3 99 17 176 70 226 154 26 44 74 170 74 194 1 65 168 314
395 589 69 83 152 162 191 180 40 19 165 53 239 64 45 7 156 43 206 66 24 12
75 44 113 73 l68 51 -33 31 c-199 185 -336 276 -514 339 -75 27 -227 62 -310
72 -27 3 -63 8 -80 10 -16 2 -61 6 -100 10 -107 10 -223 32 -300 55 -79 25
-280 122 -400 195 -256 155 -328 220 -365 329 -13 42 -36 84 -57 107 -62 69
-234 136 -418 165 -119 18 -177 22 -360 19 -209 -3 -222 -4 -339 -36 -138 -38
-174 -43 -215 -31 -36 11 -115 74 -245 194 l-60 55 70 -9 c57 -8 198 -4 279 6
58 8 129 19 205 33 47 8 96 17 110 20 66 11 254 56 331 78 119 34 171 58 217
100 100 89 113 218 45 415 -43 123 -21 235 83 416 65 114 420 653 444 674 3 3
33 43 65 90 149 214 298 403 411 520 50 52 76 89 85 118 13 46 13 47 -36 231
-31 117 -33 203 -4 251 33 55 56 76 184 173 144 108 241 191 263 225 15 24 15
25 -19 53 -33 27 -148 69 -242 87 -90 18 -229 15 -321 -7 -47 -11 -96 -23
-108 -25 -73 -15 -321 -88 -363 -106 -11 -5 -60 -25 -110 -44 -108 -41 -182
-77 -251 -121 -77 -49 -182 -93 -244 -101 -65 -8 -192 -53 -345 -122 -122 -55
-326 -136 -395 -157 -25 -8 -137 -45 -250 -83 -183 -62 -387 -125 -595 -184
-109 -31 -262 -93 -348 -142 -73 -42 -197 -135 -281 -211 -32 -30 -168 -126
-216 -152 -111 -63 -247 -101 -377 -106 -88 -3 -71 20 103 133 81 52 173 111
205 130 253 152 360 210 383 210 15 0 143 93 202 147 161 145 199 179 208 188
34 32 202 170 272 222 218 163 373 251 515 293 93 28 158 61 231 116 93 72
136 136 144 218 6 63 16 68 87 41 34 -12 82 -26 107 -30 25 -4 52 -9 60 -10 8
-2 62 -6 120 -10 312 -23 571 10 835 105 130 47 208 97 318 203 71 69 144 112
262 156 183 68 238 108 345 251 83 111 165 196 215 225 22 13 76 33 119 44 91
25 121 44 160 100 56 81 82 213 91 466 9 251 15 302 44 411 18 66 85 195 138
264 27 36 69 92 95 125 50 66 85 132 83 155 -1 8 -3 23 -3 33 -1 11 -20 26
-49 40 -41 18 -66 21 -173 21 -69 0 -172 -3 -230 -8 -112 -9 -112 -9 -208 -7
-47 1 -64 5 -69 17 -3 9 0 20 8 25 64 41 386 127 634 169 231 40 385 99 558
216 76 51 286 163 332 177 51 14 255 97 299 121 126 67 103 118 -84 180 -42
14 -92 28 -111 31 -19 3 -59 12 -89 20 -30 7 -72 16 -94 19 -21 4 -41 8 -45
10 -3 3 -27 7 -51 11 -25 3 -53 8 -62 11 -93 27 -335 41 -403 23z m-12485
-2137 c273 -70 284 -76 228 -110 -61 -38 -230 -55 -533 -56 -215 0 -345 8
-375 24 -16 8 -19 17 -14 33 18 61 41 86 114 125 50 28 143 40 265 37 104 -3
146 -10 315 -53z m-285 -1076 c144 -12 149 -14 172 -41 13 -14 23 -38 23 -53
0 -42 10 -48 75 -48 71 0 229 -52 330 -109 57 -31 65 -40 65 -65 0 -24 5 -31
28 -36 63 -13 111 -37 180 -89 143 -109 269 -257 256 -299 -3 -12 -7 -25 -8
-29 -1 -10 18 -22 48 -31 14 -5 17 -13 12 -39 -6 -35 -1 -48 28 -64 21 -11 53
-86 61 -143 3 -20 8 -47 10 -60 7 -36 17 -171 19 -274 4 -136 -9 -198 -64
-311 -27 -55 -53 -119 -58 -142 -9 -40 -8 -166 2 -208 19 -86 32 -130 57 -200
51 -141 55 -241 20 -456 -12 -70 -23 -155 -25 -190 -6 -86 -16 -108 -78 -171
-60 -61 -145 -112 -202 -123 -76 -13 -233 -110 -300 -185 -51 -58 -59 -91 -62
-270 -1 -91 -5 -181 -9 -200 -10 -57 -46 -119 -100 -172 -118 -119 -166 -117
-194 8 -16 66 -44 112 -78 125 -38 14 -47 0 -35 -55 26 -124 -110 -188 -272
-127 -73 27 -110 27 -138 -1 -71 -71 -212 -49 -273 44 -14 22 -33 38 -44 38
-10 0 -41 -20 -67 -44 -124 -110 -165 -105 -260 34 -71 103 -93 163 -100 270
-12 203 -156 337 -488 455 -157 56 -189 70 -252 110 -126 81 -198 195 -243
388 -6 26 -16 66 -21 90 -43 180 -34 229 90 516 17 40 34 97 37 126 5 48 2 59
-25 101 -38 57 -45 90 -41 191 5 98 40 178 96 214 50 32 98 97 123 168 33 91
81 127 174 131 14 0 -16 31 -71 71 -78 58 -79 80 -2 158 69 69 98 82 195 85
77 2 98 6 156 35 116 57 178 134 178 224 0 20 -5 27 -18 27 -18 0 -84 -43
-123 -79 -38 -35 -134 -85 -216 -113 -148 -50 -196 -78 -282 -167 -73 -77
-102 -142 -115 -253 -12 -114 -144 -253 -221 -234 -70 18 -62 207 21 455 66
199 158 357 267 462 63 59 241 199 255 199 6 0 12 4 14 8 8 19 120 73 183 87
38 9 94 27 124 40 127 53 484 163 647 199 39 8 102 18 140 22 38 4 70 8 72 9
4 4 254 -3 327 -9z m7750 -1032 c61 -14 112 -28 114 -31 3 -2 -28 -37 -69 -78
-121 -122 -227 -157 -400 -134 -53 7 -70 15 -92 38 -23 25 -25 34 -18 65 19
86 82 147 175 170 44 11 187 -4 290 -30z m-957 -556 c19 -19 14 -50 -18 -116
-54 -107 -183 -219 -243 -210 -34 5 -32 40 5 114 76 153 207 261 256 212z
m-5936 -1773 c8 -31 4 -532 -5 -595 -14 -91 -18 -109 -37 -164 -11 -32 -44
-95 -74 -140 -73 -111 -101 -168 -129 -270 -46 -164 -116 -229 -297 -281 -3
-1 -23 -5 -45 -10 -22 -5 -42 -10 -45 -10 -3 -1 -27 -5 -55 -10 -27 -4 -59 -9
-70 -11 -123 -23 -479 -23 -592 1 -137 28 -184 40 -250 67 -90 36 -138 64
-192 113 -39 36 -55 67 -90 176 -12 37 -32 86 -46 110 -13 24 -32 58 -41 74
-38 67 -136 183 -179 211 -51 33 -74 110 -81 269 -8 183 -21 249 -59 299 -28
37 -39 77 -31 111 22 89 220 -77 330 -277 20 -35 50 -107 67 -159 38 -114 90
-220 135 -275 60 -74 240 -153 344 -150 53 1 55 2 72 38 28 60 95 64 176 11
32 -21 52 -47 88 -114 25 -48 52 -90 60 -93 14 -5 49 47 78 114 20 50 59 88
111 111 64 29 129 16 146 -29 9 -22 14 -24 54 -20 46 6 136 48 216 102 202
135 313 322 301 501 -10 138 -6 182 22 240 29 57 69 98 95 93 8 -2 18 -16 23
-33z m2173 -209 c27 -4 55 -12 62 -17 13 -11 28 -80 38 -169 4 -30 8 -66 10
-80 2 -14 7 -50 10 -80 16 -123 32 -185 71 -266 43 -92 106 -150 202 -188 111
-43 163 -115 167 -231 5 -139 -88 -308 -201 -365 -60 -30 -163 -36 -274 -14
-41 8 -87 16 -102 19 -15 3 -38 9 -52 15 -15 5 -26 8 -26 5 0 -2 -21 2 -47 10
-27 7 -64 16 -83 19 -19 3 -46 8 -60 11 -22 5 -65 12 -110 20 -32 5 -233 -69
-410 -152 -30 -14 -89 -41 -130 -60 -41 -19 -106 -50 -145 -68 -99 -47 -284
-124 -311 -129 -33 -6 -62 -24 -123 -73 -72 -59 -158 -101 -320 -158 -143 -50
-161 -59 -217 -111 -20 -18 -82 -52 -138 -76 -163 -68 -246 -116 -246 -141 0
-16 -51 -55 -117 -89 -78 -40 -113 -72 -113 -103 0 -18 -10 -30 -38 -44 -29
-15 -125 -48 -162 -56 -3 -1 -18 -4 -35 -8 -16 -4 -46 -9 -65 -12 -96 -15
-152 -36 -334 -126 -141 -71 -239 -128 -281 -165 -64 -56 -92 -72 -143 -83
-65 -14 -81 -22 -149 -77 -30 -24 -60 -44 -68 -44 -22 0 -24 -1 -95 -27 -59
-22 -787 -322 -835 -344 -40 -18 -141 -50 -175 -55 -19 -3 -54 -14 -77 -25
-24 -10 -45 -19 -48 -19 -3 0 -54 -24 -113 -53 -200 -99 -290 -173 -345 -285
-21 -44 -37 -64 -54 -68 -13 -4 -28 -14 -32 -23 -5 -9 -9 -104 -8 -211 1 -220
-7 -268 -53 -300 -32 -23 -99 -49 -145 -57 -16 -2 -48 -8 -70 -13 -70 -16
-224 -6 -275 17 -89 41 -106 81 -80 188 28 112 34 333 13 395 -15 41 -86 91
-298 210 -191 107 -295 181 -295 209 0 18 69 156 109 218 79 122 143 166 239
165 103 -1 193 -38 523 -214 l66 -36 69 28 c38 16 195 79 349 141 154 62 312
127 350 144 39 18 93 43 120 55 28 12 69 35 92 51 155 107 605 294 858 357
106 27 159 52 225 107 31 26 70 48 90 51 61 11 178 62 435 189 383 189 524
254 600 280 39 13 87 39 108 57 66 57 206 133 745 405 288 145 585 298 660
340 285 158 424 268 475 376 30 64 66 95 119 103 21 4 41 12 45 18 4 6 8 38 9
71 1 34 11 86 24 120 71 189 73 198 74 295 2 116 14 136 101 179 63 31 87 38
170 48 28 3 51 6 52 7 5 5 171 -2 218 -8z m-5934 -141 c98 -49 165 -114 175
-169 4 -26 26 -86 91 -256 16 -41 30 -78 30 -83 1 -4 5 -33 9 -65 13 -110 18
-120 78 -161 41 -28 195 -107 312 -158 27 -12 74 -33 104 -46 30 -13 181 -77
335 -142 154 -64 294 -123 310 -130 17 -7 75 -32 130 -55 55 -23 118 -50 140
-60 79 -35 351 -148 420 -174 39 -15 79 -31 90 -36 11 -6 72 -30 135 -54 250
-95 308 -120 392 -163 48 -24 90 -48 93 -52 25 -42 -374 -242 -470 -236 -116
7 -667 216 -773 293 -27 19 -54 30 -76 30 -44 0 -158 33 -496 142 -557 180
-678 214 -726 205 -41 -7 -134 -70 -209 -140 -129 -121 -223 -166 -358 -171
-75 -3 -98 0 -155 22 -90 34 -176 91 -249 167 -60 62 -93 112 -93 142 0 9 9
28 20 43 12 16 28 55 36 88 30 116 66 155 312 339 95 71 172 132 172 137 0 5
-23 50 -50 101 -102 186 -181 353 -192 409 -29 139 44 208 277 262 47 11 134
-2 186 -29z m12459 -1042 c70 -40 167 -73 234 -78 117 -11 180 -33 240 -85 51
-45 46 -70 -19 -92 -27 -9 -74 -19 -104 -23 -30 -4 -63 -9 -75 -12 -12 -2
-104 -6 -206 -8 -182 -4 -188 -4 -339 30 -85 19 -165 42 -178 50 -59 39 -6 86
159 141 127 42 172 69 176 106 3 25 5 26 30 15 15 -7 52 -26 82 -44z m951
-579 c249 -111 442 -171 589 -181 147 -9 188 -43 107 -89 -97 -54 -314 -64
-492 -22 -60 15 -182 43 -270 64 -268 62 -435 142 -374 179 11 8 39 12 115 19
50 4 114 29 114 44 0 5 9 18 20 30 26 28 37 25 191 -44z m-9511 -638 c81 -17
137 -34 264 -78 77 -28 209 -74 293 -103 84 -30 167 -60 185 -69 18 -8 79 -33
136 -56 98 -39 132 -52 372 -140 124 -45 240 -95 329 -141 59 -31 71 -34 155
-34 50 1 109 4 131 7 43 7 157 43 190 60 25 13 158 100 165 108 18 21 166 102
217 119 89 30 147 27 221 -10 171 -85 251 -232 195 -359 -35 -79 -177 -207
-276 -249 -71 -30 -132 -76 -157 -117 -20 -31 -22 -44 -16 -97 3 -34 19 -111
35 -172 48 -180 72 -269 77 -286 3 -12 -26 -41 -97 -99 -122 -98 -216 -146
-309 -157 -25 -3 -51 -7 -59 -8 -28 -4 -115 17 -152 36 -66 33 -104 106 -124
234 -8 51 -8 278 0 371 l6 71 -58 26 c-51 23 -108 47 -123 52 -5 2 -56 24
-125 55 -22 10 -80 34 -130 55 -49 21 -103 43 -120 50 -50 21 -246 92 -305
110 -74 24 -120 48 -149 79 -14 14 -34 26 -46 26 -48 0 -240 61 -360 115 -145
66 -298 122 -604 225 -286 95 -320 109 -351 140 -28 28 -17 45 64 99 100 66
210 117 291 134 65 14 177 15 235 3z m7868 -508 c38 -19 39 -66 0 -107 -126
-134 -470 -253 -718 -247 -99 2 -167 24 -207 68 -20 22 -15 28 29 35 44 7 95
28 132 56 54 40 100 64 200 101 112 42 296 91 376 101 30 4 56 8 58 10 8 7
106 -6 130 -17z m882 -2233 c11 -13 8 -23 -16 -57 -33 -47 -141 -133 -212
-168 -70 -36 -115 -32 -159 13 -35 34 -36 38 -27 74 12 48 52 69 149 77 100 9
140 20 176 50 34 29 70 34 89 11z m-927 -540 c49 -23 68 -59 44 -83 -26 -25
-149 -22 -185 5 -33 25 -39 58 -15 85 15 16 27 19 68 16 27 -3 67 -13 88 -23z
m-15506 -1259 c16 -16 18 -74 5 -111 -45 -119 -239 -310 -389 -380 -104 -50
-153 -24 -153 80 0 113 38 211 105 267 89 75 398 179 432 144z"/>
<path d="M8727 14784 c-1 -1 -32 -4 -69 -8 -37 -3 -102 -17 -145 -31 -97 -30
-177 -96 -215 -177 -33 -68 -39 -96 -43 -188 -9 -189 58 -303 226 -383 129
-62 230 -81 439 -81 150 0 210 14 247 58 81 95 140 345 111 466 -49 201 -183
317 -387 336 -71 6 -161 11 -164 8z"/>
<path d="M10240 14633 c-197 -23 -370 -132 -445 -279 -27 -52 -30 -69 -30
-144 1 -72 5 -93 28 -137 55 -107 128 -162 214 -163 76 0 146 -21 192 -56 51
-39 90 -49 174 -41 173 14 322 120 379 269 26 70 32 131 19 203 -29 157 -140
277 -299 324 -63 19 -176 30 -232 24z"/>
<path d="M9402 13806 c-38 -56 -127 -263 -182 -424 -43 -128 -53 -168 -57
-248 l-6 -94 59 28 c53 25 134 67 289 146 28 14 53 26 56 26 7 0 13 -5 119
-100 93 -83 102 -89 121 -90 37 0 109 158 112 245 1 46 -21 91 -100 196 -58
78 -253 274 -308 310 -64 43 -77 43 -103 5z"/>
</g>
</svg>
